{
  "accessors": [
    {
      "bufferView": 2,
      "componentType": 5126,
      "count": 21494,
      "max": [
        1.8764537572860718,
        2.674825668334961,
        6.309317588806152
      ],
      "min": [
        -0.9597209095954895,
        -0.6256853342056274,
        -4.910511016845703
      ],
      "type": "VEC3"
    },
    {
      "bufferView": 2,
      "byteOffset": 257928,
      "componentType": 5126,
      "count": 21494,
      "max": [
        1.0,
        1.0,
        1.0
      ],
      "min": [
        -1.0,
        -1.0,
        -1.0
      ],
      "type": "VEC3"
    },
    {
      "bufferView": 3,
      "componentType": 5126,
      "count": 21494,
      "max": [
        1.0,
        1.0,
        1.0,
        1.0
      ],
      "min": [
        -1.0,
        -1.0,
        -1.0,
        -1.0
      ],
      "type": "VEC4"
    },
    {
      "bufferView": 1,
      "componentType": 5126,
      "count": 21494,
      "max": [
        0.998199999332428,
        0.9998999834060669
      ],
      "min": [
        0.00279999990016222,
        0.0017999999690800905
      ],
      "type": "VEC2"
    },
    {
      "bufferView": 1,
      "byteOffset": 171952,
      "componentType": 5126,
      "count": 21494,
      "max": [
        0.998199999332428,
        0.9998999834060669
      ],
      "min": [
        0.00279999990016222,
        0.0017999999690800905
      ],
      "type": "VEC2"
    },
    {
      "bufferView": 1,
      "byteOffset": 343904,
      "componentType": 5126,
      "count": 21494,
      "max": [
        0.998199999332428,
        0.9998999834060669
      ],
      "min": [
        0.00279999990016222,
        0.0017999999690800905
      ],
      "type": "VEC2"
    },
    {
      "bufferView": 0,
      "componentType": 5125,
      "count": 50466,
      "type": "SCALAR"
    }
  ],
  "asset": {
    "extras": {
      "author": "Ivan Norman (https://sketchfab.com/vanidza)",
      "license": "CC-BY-NC-4.0 (http://creativecommons.org/licenses/by-nc/4.0/)",
      "source": "https://sketchfab.com/3d-models/pkm-4e44b6c6043448908f9fdd2c30cc7da4",
      "title": "PKM"
    },
    "generator": "Sketchfab-12.66.0",
    "version": "2.0"
  },
  "bufferViews": [
    {
      "buffer": 0,
      "byteLength": 201864,
      "name": "floatBufferViews",
      "target": 34963
    },
    {
      "buffer": 0,
      "byteLength": 515856,
      "byteOffset": 201864,
      "byteStride": 8,
      "name": "floatBufferViews",
      "target": 34962
    },
    {
      "buffer": 0,
      "byteLength": 515856,
      "byteOffset": 717720,
      "byteStride": 12,
      "name": "floatBufferViews",
      "target": 34962
    },
    {
      "buffer": 0,
      "byteLength": 343904,
      "byteOffset": 1233576,
      "byteStride": 16,
      "name": "floatBufferViews",
      "target": 34962
    }
  ],
  "buffers": [
    {
      "byteLength": 1577480,
      "uri": "scene.bin"
    }
  ],
  "images": [
    {
      "uri": "textures/material_baseColor.png"
    },
    {
      "uri": "textures/material_metallicRoughness.png"
    },
    {
      "uri": "textures/material_normal.png"
    }
  ],
  "materials": [
    {
      "doubleSided": true,
      "name": "material",
      "normalTexture": {
        "index": 2
      },
      "pbrMetallicRoughness": {
        "baseColorTexture": {
          "index": 0
        },
        "metallicRoughnessTexture": {
          "index": 1
        }
      }
    }
  ],
  "meshes": [
    {
      "name": "box_PKM_0",
      "primitives": [
        {
          "attributes": {
            "NORMAL": 1,
            "POSITION": 0,
            "TANGENT": 2,
            "TEXCOORD_0": 3,
            "TEXCOORD_1": 4,
            "TEXCOORD_2": 5
          },
          "indices": 6,
          "material": 0,
          "mode": 4
        }
      ]
    }
  ],
  "nodes": [
    {
      "children": [
        1
      ],
      "matrix": [
        1.0,
        0.0,
        0.0,
        0.0,
        0.0,
        2.220446049250313e-16,
        -1.0,
        0.0,
        0.0,
        1.0,
        2.220446049250313e-16,
        0.0,
        0.0,
        0.0,
        0.0,
        1.0
      ],
      "name": "Sketchfab_model"
    },
    {
      "children": [
        2
      ],
      "matrix": [
        1.0,
        0.0,
        0.0,
        0.0,
        0.0,
        0.0,
        1.0,
        0.0,
        0.0,
        -1.0,
        0.0,
        0.0,
        0.0,
        0.0,
        0.0,
        1.0
      ],
      "name": "4a4f53ab42924bceb8f0e7668ea090f9.fbx"
    },
    {
      "children": [
        3
      ],
      "name": "RootNode"
    },
    {
      "children": [
        4
      ],
      "matrix": [
        99.9999923706007,
        -6.542052444694933e-06,
        -3.019915535943304e-05,
        0.0,
        -1.4931480210939196e-07,
        97.62959259451148,
        -21.643962759875098,
        0.0,
        3.089927409668685e-05,
        21.64396275987411,
        97.6295925945068,
        0.0,
        0.0,
        -2.9802322387695313e-06,
        -1.179991954813886e-06,
        1.0
      ],
      "name": "box"
    },
    {
      "mesh": 0,
      "name": "box_PKM_0"
    }
  ],
  "samplers": [
    {
      "magFilter": 9729,
      "minFilter": 9987,
      "wrapS": 10497,
      "wrapT": 10497
    }
  ],
  "scene": 0,
  "scenes": [
    {
      "name": "Sketchfab_Scene",
      "nodes": [
        0
      ]
    }
  ],
  "textures": [
    {
      "sampler": 0,
      "source": 0
    },
    {
      "sampler": 0,
      "source": 1
    },
    {
      "sampler": 0,
      "source": 2
    }
  ]
}
