{
  "accessors": [
    {
      "bufferView": 2,
      "componentType": 5126,
      "count": 7341,
      "max": [
        6.933020114898682,
        50.88058853149414,
        16.79279327392578
      ],
      "min": [
        -1.7557129859924316,
        -28.649375915527344,
        -16.68010139465332
      ],
      "type": "VEC3"
    },
    {
      "bufferView": 2,
      "byteOffset": 88092,
      "componentType": 5126,
      "count": 7341,
      "max": [
        1.0,
        1.0,
        1.0
      ],
      "min": [
        -1.0,
        -1.0,
        -1.0
      ],
      "type": "VEC3"
    },
    {
      "bufferView": 1,
      "componentType": 5126,
      "count": 7341,
      "max": [
        1.0161490440368652,
        0.9884949922561646
      ],
      "min": [
        -0.8810830116271973,
        -0.1712300032377243
      ],
      "type": "VEC2"
    },
    {
      "bufferView": 0,
      "componentType": 5125,
      "count": 25074,
      "type": "SCALAR"
    },
    {
      "bufferView": 2,
      "byteOffset": 176184,
      "componentType": 5126,
      "count": 9965,
      "max": [
        6.933020114898682,
        50.93351364135742,
        16.79279327392578
      ],
      "min": [
        -1.610656976699829,
        -28.6478328704834,
        -17.057477951049805
      ],
      "type": "VEC3"
    },
    {
      "bufferView": 2,
      "byteOffset": 295764,
      "componentType": 5126,
      "count": 9965,
      "max": [
        1.0,
        1.0,
        1.0
      ],
      "min": [
        -1.0,
        -1.0,
        -1.0
      ],
      "type": "VEC3"
    },
    {
      "bufferView": 1,
      "byteOffset": 58728,
      "componentType": 5126,
      "count": 9965,
      "max": [
        0.9886990189552307,
        1.0000369548797607
      ],
      "min": [
        -2.388906955718994,
        -0.1712300032377243
      ],
      "type": "VEC2"
    },
    {
      "bufferView": 0,
      "byteOffset": 100296,
      "componentType": 5125,
      "count": 26190,
      "type": "SCALAR"
    },
    {
      "bufferView": 2,
      "byteOffset": 415344,
      "componentType": 5126,
      "count": 2564,
      "max": [
        6.0378031730651855,
        50.93351364135742,
        16.718597412109375
      ],
      "min": [
        -1.7557129859924316,
        -28.097806930541992,
        -17.057477951049805
      ],
      "type": "VEC3"
    },
    {
      "bufferView": 2,
      "byteOffset": 446112,
      "componentType": 5126,
      "count": 2564,
      "max": [
        1.0,
        1.0,
        1.0
      ],
      "min": [
        -1.0,
        -1.0,
        -1.0
      ],
      "type": "VEC3"
    },
    {
      "bufferView": 1,
      "byteOffset": 138448,
      "componentType": 5126,
      "count": 2564,
      "max": [
        0.9839739799499512,
        0.988959014415741
      ],
      "min": [
        -2.4177510738372803,
        -0.1695449948310852
      ],
      "type": "VEC2"
    },
    {
      "bufferView": 0,
      "byteOffset": 205056,
      "componentType": 5125,
      "count": 8427,
      "type": "SCALAR"
    }
  ],
  "asset": {
    "extras": {
      "author": "javadbayat (https://sketchfab.com/javadbayat)",
      "license": "CC-BY-4.0 (http://creativecommons.org/licenses/by/4.0/)",
      "source": "https://sketchfab.com/3d-models/desert-eagle-free-model-32838f1430494894911b077ab281b6a7",
      "title": "desert eagle  (FREE MODEL)"
    },
    "generator": "Sketchfab-12.66.0",
    "version": "2.0"
  },
  "bufferViews": [
    {
      "buffer": 0,
      "byteLength": 238764,
      "name": "floatBufferViews",
      "target": 34963
    },
    {
      "buffer": 0,
      "byteLength": 158960,
      "byteOffset": 238764,
      "byteStride": 8,
      "name": "floatBufferViews",
      "target": 34962
    },
    {
      "buffer": 0,
      "byteLength": 476880,
      "byteOffset": 397724,
      "byteStride": 12,
      "name": "floatBufferViews",
      "target": 34962
    }
  ],
  "buffers": [
    {
      "byteLength": 874604,
      "uri": "scene.bin"
    }
  ],
  "images": [
    {
      "uri": "textures/initialShadingGroup_baseColor.jpeg"
    }
  ],
  "materials": [
    {
      "doubleSided": true,
      "name": "initialShadingGroup",
      "pbrMetallicRoughness": {
        "baseColorTexture": {
          "index": 0
        },
        "roughnessFactor": 0.15901471983711674
      }
    }
  ],
  "meshes": [
    {
      "name": "Object_0",
      "primitives": [
        {
          "attributes": {
            "NORMAL": 1,
            "POSITION": 0,
            "TEXCOORD_0": 2
          },
          "indices": 3,
          "material": 0,
          "mode": 4
        }
      ]
    },
    {
      "name": "Object_1",
      "primitives": [
        {
          "attributes": {
            "NORMAL": 5,
            "POSITION": 4,
            "TEXCOORD_0": 6
          },
          "indices": 7,
          "material": 0,
          "mode": 4
        }
      ]
    },
    {
      "name": "Object_2",
      "primitives": [
        {
          "attributes": {
            "NORMAL": 9,
            "POSITION": 8,
            "TEXCOORD_0": 10
          },
          "indices": 11,
          "material": 0,
          "mode": 4
        }
      ]
    }
  ],
  "nodes": [
    {
      "children": [
        1
      ],
      "matrix": [
        0.005170878488570452,
        0.0,
        0.0,
        0.0,
        0.0,
        1.148165671109969e-18,
        -0.005170878488570452,
        0.0,
        0.0,
        0.005170878488570452,
        1.148165671109969e-18,
        0.0,
        0.0,
        0.0,
        0.0,
        1.0
      ],
      "name": "Sketchfab_model"
    },
    {
      "children": [
        2,
        3,
        4
      ],
      "name": "1obj.obj.cleaner.materialmerger.gles"
    },
    {
      "mesh": 0,
      "name": "Object_2"
    },
    {
      "mesh": 1,
      "name": "Object_3"
    },
    {
      "mesh": 2,
      "name": "Object_4"
    }
  ],
  "samplers": [
    {
      "magFilter": 9729,
      "minFilter": 9987,
      "wrapS": 10497,
      "wrapT": 10497
    }
  ],
  "scene": 0,
  "scenes": [
    {
      "name": "Sketchfab_Scene",
      "nodes": [
        0
      ]
    }
  ],
  "textures": [
    {
      "sampler": 0,
      "source": 0
    }
  ]
}
