{
  "accessors": [
    {
      "bufferView": 2,
      "componentType": 5126,
      "count": 10718,
      "max": [
        2.4560279846191406,
        50.7593994140625,
        2.423696994781494
      ],
      "min": [
        -1.9931762218475342,
        -37.30013656616211,
        -16.159767150878906
      ],
      "type": "VEC3"
    },
    {
      "bufferView": 2,
      "byteOffset": 128616,
      "componentType": 5126,
      "count": 10718,
      "max": [
        1.0,
        1.0,
        1.0
      ],
      "min": [
        -1.0,
        -1.0,
        -1.0
      ],
      "type": "VEC3"
    },
    {
      "bufferView": 1,
      "componentType": 5126,
      "count": 10718,
      "max": [
        0.9996749758720398,
        1.8224289417266846
      ],
      "min": [
        0.0016391719691455364,
        0.0022297892719507217
      ],
      "type": "VEC2"
    },
    {
      "bufferView": 0,
      "componentType": 5125,
      "count": 37695,
      "type": "SCALAR"
    },
    {
      "bufferView": 2,
      "byteOffset": 257232,
      "componentType": 5126,
      "count": 2201,
      "max": [
        1.3123106956481934,
        7.101722717285156,
        9.927167892456055
      ],
      "min": [
        -1.3123106956481934,
        -7.101722717285156,
        -9.927166938781738
      ],
      "type": "VEC3"
    },
    {
      "bufferView": 2,
      "byteOffset": 283644,
      "componentType": 5126,
      "count": 2201,
      "max": [
        1.0,
        0.9999331831932068,
        0.9999996423721313
      ],
      "min": [
        -1.0,
        -0.999957263469696,
        -1.0
      ],
      "type": "VEC3"
    },
    {
      "bufferView": 1,
      "byteOffset": 85744,
      "componentType": 5126,
      "count": 2201,
      "max": [
        0.6786226034164429,
        1.8623771667480469
      ],
      "min": [
        0.005231737159192562,
        0.23857399821281433
      ],
      "type": "VEC2"
    },
    {
      "bufferView": 0,
      "byteOffset": 150780,
      "componentType": 5125,
      "count": 8745,
      "type": "SCALAR"
    },
    {
      "bufferView": 2,
      "byteOffset": 310056,
      "componentType": 5126,
      "count": 166,
      "max": [
        0.5363806486129761,
        0.8892965316772461,
        -0.014093279838562012
      ],
      "min": [
        -0.5363806486129761,
        -0.8279943466186523,
        -2.6611948013305664
      ],
      "type": "VEC3"
    },
    {
      "bufferView": 2,
      "byteOffset": 312048,
      "componentType": 5126,
      "count": 166,
      "max": [
        1.0,
        0.9978184700012207,
        0.8751686811447144
      ],
      "min": [
        -1.0,
        -0.9859856963157654,
        -1.0
      ],
      "type": "VEC3"
    },
    {
      "bufferView": 1,
      "byteOffset": 103352,
      "componentType": 5126,
      "count": 166,
      "max": [
        0.9974782466888428,
        0.9176010489463806
      ],
      "min": [
        0.9369400143623352,
        0.7639738321304321
      ],
      "type": "VEC2"
    },
    {
      "bufferView": 0,
      "byteOffset": 185760,
      "componentType": 5125,
      "count": 522,
      "type": "SCALAR"
    },
    {
      "bufferView": 2,
      "byteOffset": 314040,
      "componentType": 5126,
      "count": 593,
      "max": [
        0.5349999666213989,
        1.0609922409057617,
        2.0291378498077393
      ],
      "min": [
        -0.16640901565551758,
        -9.608572959899902,
        -1.0626819133758545
      ],
      "type": "VEC3"
    },
    {
      "bufferView": 2,
      "byteOffset": 321156,
      "componentType": 5126,
      "count": 593,
      "max": [
        1.0,
        1.0,
        1.0
      ],
      "min": [
        -1.0,
        -1.0,
        -1.0
      ],
      "type": "VEC3"
    },
    {
      "bufferView": 1,
      "byteOffset": 104680,
      "componentType": 5126,
      "count": 593,
      "max": [
        0.9991501569747925,
        0.9187057018280029
      ],
      "min": [
        0.002644567983224988,
        0.09307368099689484
      ],
      "type": "VEC2"
    },
    {
      "bufferView": 0,
      "byteOffset": 187848,
      "componentType": 5125,
      "count": 1860,
      "type": "SCALAR"
    },
    {
      "bufferView": 2,
      "byteOffset": 328272,
      "componentType": 5126,
      "count": 287,
      "max": [
        2.1841721534729004,
        7.111474990844727,
        1.6561236381530762
      ],
      "min": [
        -2.1841721534729004,
        -7.111474990844727,
        -2.646131992340088
      ],
      "type": "VEC3"
    },
    {
      "bufferView": 2,
      "byteOffset": 331716,
      "componentType": 5126,
      "count": 287,
      "max": [
        1.0,
        1.0,
        1.0
      ],
      "min": [
        -1.0,
        -1.0,
        -1.0
      ],
      "type": "VEC3"
    },
    {
      "bufferView": 1,
      "byteOffset": 109424,
      "componentType": 5126,
      "count": 287,
      "max": [
        0.8611941337585449,
        1.953482747077942
      ],
      "min": [
        0.3636065721511841,
        0.5615972280502319
      ],
      "type": "VEC2"
    },
    {
      "bufferView": 0,
      "byteOffset": 195288,
      "componentType": 5125,
      "count": 732,
      "type": "SCALAR"
    },
    {
      "bufferView": 2,
      "byteOffset": 335160,
      "componentType": 5126,
      "count": 687,
      "max": [
        1.1256659030914307,
        5.107965469360352,
        0.5412030220031738
      ],
      "min": [
        -1.003035545349121,
        -0.7183856964111328,
        -0.2737393379211426
      ],
      "type": "VEC3"
    },
    {
      "bufferView": 2,
      "byteOffset": 343404,
      "componentType": 5126,
      "count": 687,
      "max": [
        1.0,
        1.0,
        1.0
      ],
      "min": [
        -1.0,
        -1.0,
        -1.0
      ],
      "type": "VEC3"
    },
    {
      "bufferView": 1,
      "byteOffset": 111720,
      "componentType": 5126,
      "count": 687,
      "max": [
        0.9609219431877136,
        1.9402108192443848
      ],
      "min": [
        0.0018468014895915985,
        0.4015430510044098
      ],
      "type": "VEC2"
    },
    {
      "bufferView": 0,
      "byteOffset": 198216,
      "componentType": 5125,
      "count": 1848,
      "type": "SCALAR"
    },
    {
      "bufferView": 2,
      "byteOffset": 351648,
      "componentType": 5126,
      "count": 520,
      "max": [
        0.5576158761978149,
        2.796541213989258,
        0.5576146841049194
      ],
      "min": [
        -0.5576158165931702,
        -2.7965431213378906,
        -0.5576169490814209
      ],
      "type": "VEC3"
    },
    {
      "bufferView": 2,
      "byteOffset": 357888,
      "componentType": 5126,
      "count": 520,
      "max": [
        1.0,
        1.0,
        1.0
      ],
      "min": [
        -1.0,
        -1.0,
        -1.0
      ],
      "type": "VEC3"
    },
    {
      "bufferView": 1,
      "byteOffset": 117216,
      "componentType": 5126,
      "count": 520,
      "max": [
        0.7425424456596375,
        0.9916417598724365
      ],
      "min": [
        0.0997646152973175,
        0.18188044428825378
      ],
      "type": "VEC2"
    },
    {
      "bufferView": 0,
      "byteOffset": 205608,
      "componentType": 5125,
      "count": 2286,
      "type": "SCALAR"
    }
  ],
  "asset": {
    "extras": {
      "author": "ErhanMatur (https://sketchfab.com/erhanmatur)",
      "license": "CC-BY-4.0 (http://creativecommons.org/licenses/by/4.0/)",
      "source": "https://sketchfab.com/3d-models/ak-47-pbr-16f2058586d643818871bfb1a90f47a1",
      "title": "AK 47 PBR"
    },
    "generator": "Sketchfab-12.65.0",
    "version": "2.0"
  },
  "bufferViews": [
    {
      "buffer": 0,
      "byteLength": 214752,
      "name": "floatBufferViews",
      "target": 34963
    },
    {
      "buffer": 0,
      "byteLength": 121376,
      "byteOffset": 214752,
      "byteStride": 8,
      "name": "floatBufferViews",
      "target": 34962
    },
    {
      "buffer": 0,
      "byteLength": 364128,
      "byteOffset": 336128,
      "byteStride": 12,
      "name": "floatBufferViews",
      "target": 34962
    }
  ],
  "buffers": [
    {
      "byteLength": 700256,
      "uri": "scene.bin"
    }
  ],
  "images": [
    {
      "uri": "textures/WPNM_AKM_baseColor.png"
    },
    {
      "uri": "textures/WPNM_AKM_metallicRoughness.png"
    }
  ],
  "materials": [
    {
      "doubleSided": true,
      "name": "WPNM_AKM",
      "pbrMetallicRoughness": {
        "baseColorTexture": {
          "index": 0
        },
        "metallicFactor": 0.3908411311554153,
        "metallicRoughnessTexture": {
          "index": 1
        },
        "roughnessFactor": 0.6158075381986879
      }
    },
    {
      "doubleSided": true,
      "name": "WPNM_calibers",
      "pbrMetallicRoughness": {
        "baseColorFactor": [
          0.13788420204419904,
          0.07038038810118039,
          0.012881002071719695,
          1.0
        ],
        "metallicFactor": 0.0,
        "roughnessFactor": 0.8158847563978622
      }
    }
  ],
  "meshes": [
    {
      "name": "WPN_AKM_WPNM_AKM_0",
      "primitives": [
        {
          "attributes": {
            "NORMAL": 1,
            "POSITION": 0,
            "TEXCOORD_0": 2
          },
          "indices": 3,
          "material": 0,
          "mode": 4
        }
      ]
    },
    {
      "name": "WPN_AKM_magazine_WPNM_AKM_0",
      "primitives": [
        {
          "attributes": {
            "NORMAL": 5,
            "POSITION": 4,
            "TEXCOORD_0": 6
          },
          "indices": 7,
          "material": 0,
          "mode": 4
        }
      ]
    },
    {
      "name": "WPN_AKM_trigger_WPNM_AKM_0",
      "primitives": [
        {
          "attributes": {
            "NORMAL": 9,
            "POSITION": 8,
            "TEXCOORD_0": 10
          },
          "indices": 11,
          "material": 0,
          "mode": 4
        }
      ]
    },
    {
      "name": "WPN_AKM_safetyswitch_WPNM_AKM_0",
      "primitives": [
        {
          "attributes": {
            "NORMAL": 13,
            "POSITION": 12,
            "TEXCOORD_0": 14
          },
          "indices": 15,
          "material": 0,
          "mode": 4
        }
      ]
    },
    {
      "name": "WPN_AKM_bolt_carrier_WPNM_AKM_0",
      "primitives": [
        {
          "attributes": {
            "NORMAL": 17,
            "POSITION": 16,
            "TEXCOORD_0": 18
          },
          "indices": 19,
          "material": 0,
          "mode": 4
        }
      ]
    },
    {
      "name": "WPN_AKM_rear_sight_leaf_WPNM_AKM_0",
      "primitives": [
        {
          "attributes": {
            "NORMAL": 21,
            "POSITION": 20,
            "TEXCOORD_0": 22
          },
          "indices": 23,
          "material": 0,
          "mode": 4
        }
      ]
    },
    {
      "name": "cal_7_62x39_WPNM_calibers_0",
      "primitives": [
        {
          "attributes": {
            "NORMAL": 25,
            "POSITION": 24,
            "TEXCOORD_0": 26
          },
          "indices": 27,
          "material": 1,
          "mode": 4
        }
      ]
    }
  ],
  "nodes": [
    {
      "children": [
        1
      ],
      "matrix": [
        1.0,
        0.0,
        0.0,
        0.0,
        0.0,
        2.220446049250313e-16,
        -1.0,
        0.0,
        0.0,
        1.0,
        2.220446049250313e-16,
        0.0,
        0.0,
        0.0,
        0.0,
        1.0
      ],
      "name": "Sketchfab_model"
    },
    {
      "children": [
        2
      ],
      "matrix": [
        1.0,
        0.0,
        0.0,
        0.0,
        0.0,
        0.0,
        1.0,
        0.0,
        0.0,
        -1.0,
        0.0,
        0.0,
        0.0,
        0.0,
        0.0,
        1.0
      ],
      "name": "WPN_AKM.FBX"
    },
    {
      "children": [
        3,
        5,
        7,
        9,
        11,
        13,
        15
      ],
      "name": "RootNode"
    },
    {
      "children": [
        4
      ],
      "matrix": [
        1.0,
        0.0,
        0.0,
        0.0,
        0.0,
        2.220446049250313e-16,
        -1.0,
        0.0,
        0.0,
        1.0,
        2.220446049250313e-16,
        0.0,
        0.4471292197704315,
        4.094360828399658,
        8.309342384338379,
        1.0
      ],
      "name": "WPN_AKM"
    },
    {
      "mesh": 0,
      "name": "WPN_AKM_WPNM_AKM_0"
    },
    {
      "children": [
        6
      ],
      "matrix": [
        1.0,
        0.0,
        0.0,
        0.0,
        0.0,
        2.220446049250313e-16,
        -1.0,
        0.0,
        0.0,
        1.0,
        2.220446049250313e-16,
        0.0,
        0.44713303446769714,
        -9.036357879638672,
        2.5470166206359863,
        1.0
      ],
      "name": "WPN_AKM_magazine"
    },
    {
      "mesh": 1,
      "name": "WPN_AKM_magazine_WPNM_AKM_0"
    },
    {
      "children": [
        8
      ],
      "matrix": [
        1.0,
        0.0,
        0.0,
        0.0,
        0.0,
        2.220446049250313e-16,
        -1.0,
        0.0,
        0.0,
        1.0,
        2.220446049250313e-16,
        0.0,
        0.4471301734447479,
        -1.4093571901321411,
        -9.686429023742676,
        1.0
      ],
      "name": "WPN_AKM_trigger"
    },
    {
      "mesh": 2,
      "name": "WPN_AKM_trigger_WPNM_AKM_0"
    },
    {
      "children": [
        10
      ],
      "matrix": [
        1.0,
        0.0,
        0.0,
        0.0,
        0.0,
        2.220446049250313e-16,
        -1.0,
        0.0,
        0.0,
        1.0,
        2.220446049250313e-16,
        0.0,
        -1.6742810010910034,
        0.6271287798881531,
        -11.843501091003418,
        1.0
      ],
      "name": "WPN_AKM_safetyswitch"
    },
    {
      "mesh": 3,
      "name": "WPN_AKM_safetyswitch_WPNM_AKM_0"
    },
    {
      "children": [
        12
      ],
      "matrix": [
        1.0,
        0.0,
        0.0,
        0.0,
        0.0,
        2.220446049250313e-16,
        -1.0,
        0.0,
        0.0,
        1.0,
        2.220446049250313e-16,
        0.0,
        -0.5939979553222656,
        3.564418315887451,
        4.3838791847229,
        1.0
      ],
      "name": "WPN_AKM_bolt_carrier"
    },
    {
      "mesh": 4,
      "name": "WPN_AKM_bolt_carrier_WPNM_AKM_0"
    },
    {
      "children": [
        14
      ],
      "matrix": [
        1.0,
        0.0,
        0.0,
        0.0,
        0.0,
        2.220446049250313e-16,
        -1.0,
        0.0,
        0.0,
        1.0,
        2.220446049250313e-16,
        0.0,
        0.38580963015556335,
        6.077978610992432,
        9.821737289428711,
        1.0
      ],
      "name": "WPN_AKM_rear_sight_leaf"
    },
    {
      "mesh": 5,
      "name": "WPN_AKM_rear_sight_leaf_WPNM_AKM_0"
    },
    {
      "children": [
        16
      ],
      "matrix": [
        1.0,
        0.0,
        0.0,
        0.0,
        0.0,
        2.220446049250313e-16,
        -1.0,
        0.0,
        0.0,
        1.0,
        2.220446049250313e-16,
        0.0,
        1.7074938796213246e-08,
        9.208877563476563,
        -0.3906290829181671,
        1.0
      ],
      "name": "cal_7_62x39"
    },
    {
      "mesh": 6,
      "name": "cal_7_62x39_WPNM_calibers_0"
    }
  ],
  "samplers": [
    {
      "magFilter": 9729,
      "minFilter": 9729,
      "wrapS": 10497,
      "wrapT": 10497
    },
    {
      "magFilter": 9729,
      "minFilter": 9987,
      "wrapS": 10497,
      "wrapT": 10497
    }
  ],
  "scene": 0,
  "scenes": [
    {
      "name": "Sketchfab_Scene",
      "nodes": [
        0
      ]
    }
  ],
  "textures": [
    {
      "sampler": 0,
      "source": 0
    },
    {
      "sampler": 1,
      "source": 1
    }
  ]
}
